<svg width="512" height="512" viewBox="0 0 512 512" xmlns="http://www.w3.org/2000/svg">
  <g transform="translate(256, 256)">
    <!-- Deep red outer band -->
    <circle cx="0" cy="0" r="190" fill="none" stroke="#C83040" stroke-width="14" opacity="0.06"/>
    <circle cx="0" cy="0" r="184" fill="none" stroke="#C83040" stroke-width="7" opacity="0.15"/>
    <circle cx="0" cy="0" r="181" fill="none" stroke="#C83040" stroke-width="3.5" opacity="0.32"/>

    <!-- Red band -->
    <circle cx="0" cy="0" r="172" fill="none" stroke="#E84848" stroke-width="14" opacity="0.07"/>
    <circle cx="0" cy="0" r="168" fill="none" stroke="#E84848" stroke-width="7" opacity="0.18"/>
    <circle cx="0" cy="0" r="166" fill="none" stroke="#E84848" stroke-width="3.5" opacity="0.4"/>

    <!-- Orange band -->
    <circle cx="0" cy="0" r="155" fill="none" stroke="#F07830" stroke-width="14" opacity="0.08"/>
    <circle cx="0" cy="0" r="151" fill="none" stroke="#F07830" stroke-width="7" opacity="0.2"/>
    <circle cx="0" cy="0" r="149" fill="none" stroke="#F07830" stroke-width="3.5" opacity="0.42"/>

    <!-- Amber band -->
    <circle cx="0" cy="0" r="138" fill="none" stroke="#F09828" stroke-width="14" opacity="0.08"/>
    <circle cx="0" cy="0" r="134" fill="none" stroke="#F09828" stroke-width="7" opacity="0.2"/>
    <circle cx="0" cy="0" r="132" fill="none" stroke="#F09828" stroke-width="3.5" opacity="0.45"/>

    <!-- Yellow band -->
    <circle cx="0" cy="0" r="121" fill="none" stroke="#E8D028" stroke-width="14" opacity="0.08"/>
    <circle cx="0" cy="0" r="117" fill="none" stroke="#E8D028" stroke-width="7" opacity="0.2"/>
    <circle cx="0" cy="0" r="115" fill="none" stroke="#E8D028" stroke-width="3.5" opacity="0.48"/>

    <!-- Green band -->
    <circle cx="0" cy="0" r="104" fill="none" stroke="#60C048" stroke-width="14" opacity="0.09"/>
    <circle cx="0" cy="0" r="100" fill="none" stroke="#60C048" stroke-width="7" opacity="0.22"/>
    <circle cx="0" cy="0" r="98" fill="none" stroke="#40B868" stroke-width="3.5" opacity="0.5"/>

    <!-- Teal/cyan band -->
    <circle cx="0" cy="0" r="86" fill="none" stroke="#38B0C0" stroke-width="14" opacity="0.09"/>
    <circle cx="0" cy="0" r="82" fill="none" stroke="#38B0C0" stroke-width="7" opacity="0.22"/>
    <circle cx="0" cy="0" r="80" fill="none" stroke="#38B0C0" stroke-width="3.5" opacity="0.5"/>

    <!-- Blue band -->
    <circle cx="0" cy="0" r="69" fill="none" stroke="#3888E0" stroke-width="14" opacity="0.09"/>
    <circle cx="0" cy="0" r="65" fill="none" stroke="#3888E0" stroke-width="7" opacity="0.24"/>
    <circle cx="0" cy="0" r="63" fill="none" stroke="#3888E0" stroke-width="4" opacity="0.52"/>

    <!-- Indigo band -->
    <circle cx="0" cy="0" r="50" fill="none" stroke="#5060D8" stroke-width="14" opacity="0.09"/>
    <circle cx="0" cy="0" r="46" fill="none" stroke="#5060D8" stroke-width="7" opacity="0.24"/>
    <circle cx="0" cy="0" r="44" fill="none" stroke="#5060D8" stroke-width="3.5" opacity="0.52"/>

    <!-- Violet band -->
    <circle cx="0" cy="0" r="34" fill="none" stroke="#7858C8" stroke-width="14" opacity="0.1"/>
    <circle cx="0" cy="0" r="30" fill="none" stroke="#7858C8" stroke-width="7" opacity="0.26"/>
    <circle cx="0" cy="0" r="28" fill="none" stroke="#7858C8" stroke-width="4" opacity="0.55"/>

    <!-- Deep violet core -->
    <circle cx="0" cy="0" r="20" fill="none" stroke="#6040B0" stroke-width="11" opacity="0.12"/>
    <circle cx="0" cy="0" r="17" fill="none" stroke="#6040B0" stroke-width="5.5" opacity="0.3"/>
    <circle cx="0" cy="0" r="15" fill="none" stroke="#6040B0" stroke-width="3" opacity="0.55"/>

    <!-- Center white glow -->
    <circle cx="0" cy="0" r="11" fill="#FFFFFF" opacity="0.03"/>
    <circle cx="0" cy="0" r="8.5" fill="#FFFFFF" opacity="0.06"/>
    <circle cx="0" cy="0" r="6" fill="#FFFFFF" opacity="0.15"/>
    <circle cx="0" cy="0" r="4" fill="#FFFFFF" opacity="0.35"/>
    <circle cx="0" cy="0" r="2.2" fill="#FFFFFF" opacity="0.7"/>
    <circle cx="0" cy="0" r="1" fill="#FFFFFF" opacity="0.95"/>
  </g>
</svg>